<?xml version="1.0" standalone="no"?>
<!DOCTYPE svg PUBLIC "-//W3C//DTD SVG 20010904//EN"
 "http://www.w3.org/TR/2001/REC-SVG-20010904/DTD/svg10.dtd">
<svg version="1.0" xmlns="http://www.w3.org/2000/svg"
 width="260.000000pt" height="260.000000pt" viewBox="0 0 260.000000 260.000000"
 preserveAspectRatio="xMidYMid meet">
<metadata>
Created by potrace 1.14, written by Peter Selinger 2001-2017
</metadata>
<g transform="translate(0.000000,260.000000) scale(0.100000,-0.100000)"
fill="#000000" stroke="none">
<path d="M1160 2584 c-283 -35 -530 -151 -732 -343 -195 -185 -318 -407 -375
-674 -21 -100 -24 -368 -4 -467 102 -516 487 -906 1004 -1017 112 -24 369 -24
484 0 258 55 464 166 649 351 184 185 294 388 350 648 22 101 25 369 5 468
-33 168 -107 345 -204 490 -64 96 -231 263 -327 327 -143 96 -300 163 -465
198 -69 15 -318 27 -385 19z m301 -259 c322 -56 593 -256 739 -545 252 -500
51 -1107 -450 -1360 -500 -252 -1107 -51 -1360 450 -198 392 -122 859 189
1171 233 233 565 340 882 284z"/>
<path d="M830 1815 l0 -175 241 0 240 0 -3 -314 c-3 -300 -4 -316 -24 -343
-45 -61 -132 -79 -210 -44 -22 10 -63 41 -90 68 l-50 50 -127 -151 -126 -151
52 -48 c59 -54 160 -107 257 -133 91 -25 320 -25 410 -1 147 40 244 111 303
225 68 129 69 141 74 695 l5 497 -476 0 -476 0 0 -175z"/>
</g>
</svg>
